<svg xmlns="http://www.w3.org/2000/svg" xmlns:xlink="http://www.w3.org/1999/xlink" width="500" zoomAndPan="magnify" viewBox="0 0 375 374.999991" height="500" preserveAspectRatio="xMidYMid meet" version="1.0"><defs><g/></defs><g fill="#5e17eb" fill-opacity="1"><g transform="translate(35.017776, 265.595027)"><g><path d="M 151.816406 -2.902344 L 78.328125 -191.949219 C 77.601562 -193.882812 74.214844 -193.882812 73.492188 -191.949219 L 0.242188 -2.902344 C -0.484375 -1.449219 0.484375 0 2.660156 0 L 35.777344 0 C 36.746094 0 37.953125 -0.484375 38.195312 -1.449219 L 75.910156 -109.269531 L 114.105469 -1.449219 C 114.347656 -0.484375 115.554688 0 116.28125 0 L 149.640625 0 C 151.335938 0 152.542969 -1.449219 151.816406 -2.902344 Z M 151.816406 -2.902344 "/></g></g></g><g fill="#5e17eb" fill-opacity="1"><g transform="translate(173.704659, 350.667904)"><g><path d="M 110.480469 -35.535156 C 87.03125 -34.570312 37.230469 -36.988281 37.230469 -96.699219 C 37.230469 -142.632812 68.414062 -160.277344 110.480469 -158.101562 L 110.480469 -115.3125 L 147.464844 -115.3125 L 147.464844 -191.222656 C 147.464844 -192.191406 146.5 -193.398438 144.808594 -193.398438 L 113.378906 -193.398438 C 65.996094 -193.398438 0 -182.519531 0 -96.699219 C 0 -14.019531 65.273438 0 113.378906 0 L 144.808594 0 C 146.5 0 147.464844 -1.207031 147.464844 -2.175781 L 147.464844 -35.535156 Z M 110.480469 -35.535156 "/></g></g></g><g fill="#5e17eb" fill-opacity="1"><g transform="translate(39.765102, 317.697582)"><g><path d="M 4.359375 0 L -0.078125 0 L 6.234375 -17.078125 L 10.625 -17.078125 L 16.78125 0 L 12.359375 0 L 11.46875 -2.859375 L 5.25 -2.859375 Z M 8.328125 -12.875 C 8.179688 -12.375 8.019531 -11.835938 7.84375 -11.265625 C 7.675781 -10.691406 7.394531 -9.757812 7 -8.46875 L 6.296875 -6.203125 L 10.40625 -6.203125 L 9.703125 -8.46875 C 9.460938 -9.15625 9.222656 -9.882812 8.984375 -10.65625 C 8.753906 -11.425781 8.535156 -12.164062 8.328125 -12.875 Z M 8.328125 -12.875 "/></g></g></g><g fill="#5e17eb" fill-opacity="1"><g transform="translate(71.350763, 317.697582)"><g><path d="M 12.203125 -3.953125 L 12.203125 0 L 1.3125 0 L 1.3125 -17.078125 L 5.53125 -17.078125 L 5.53125 -3.953125 Z M 12.203125 -3.953125 "/></g></g></g><g fill="#5e17eb" fill-opacity="1"><g transform="translate(98.743624, 317.697582)"><g><path d="M 5.53125 -4.796875 L 5.53125 0 L 1.3125 0 L 1.3125 -17.078125 L 7.546875 -17.078125 C 10.179688 -17.078125 12.050781 -16.617188 13.15625 -15.703125 C 14.257812 -14.785156 14.8125 -13.242188 14.8125 -11.078125 C 14.8125 -8.941406 14.222656 -7.359375 13.046875 -6.328125 C 11.878906 -5.304688 10.070312 -4.796875 7.625 -4.796875 Z M 10.546875 -11.078125 C 10.546875 -11.878906 10.328125 -12.441406 9.890625 -12.765625 C 9.453125 -13.097656 8.671875 -13.265625 7.546875 -13.265625 L 5.53125 -13.265625 L 5.53125 -8.5 L 7.546875 -8.5 C 8.691406 -8.5 9.476562 -8.6875 9.90625 -9.0625 C 10.332031 -9.445312 10.546875 -10.117188 10.546875 -11.078125 Z M 10.546875 -11.078125 "/></g></g></g><g fill="#5e17eb" fill-opacity="1"><g transform="translate(128.85909, 317.697582)"><g><path d="M 5.53125 0 L 1.3125 0 L 1.3125 -17.078125 L 5.53125 -17.078125 L 5.53125 -10.5625 L 11.515625 -10.5625 L 11.515625 -17.078125 L 15.734375 -17.078125 L 15.734375 0 L 11.515625 0 L 11.515625 -6.75 L 5.53125 -6.75 Z M 5.53125 0 "/></g></g></g><g fill="#5e17eb" fill-opacity="1"><g transform="translate(160.744229, 317.697582)"><g><path d="M 4.359375 0 L -0.078125 0 L 6.234375 -17.078125 L 10.625 -17.078125 L 16.78125 0 L 12.359375 0 L 11.46875 -2.859375 L 5.25 -2.859375 Z M 8.328125 -12.875 C 8.179688 -12.375 8.019531 -11.835938 7.84375 -11.265625 C 7.675781 -10.691406 7.394531 -9.757812 7 -8.46875 L 6.296875 -6.203125 L 10.40625 -6.203125 L 9.703125 -8.46875 C 9.460938 -9.15625 9.222656 -9.882812 8.984375 -10.65625 C 8.753906 -11.425781 8.535156 -12.164062 8.328125 -12.875 Z M 8.328125 -12.875 "/></g></g></g><g fill="#5e17eb" fill-opacity="1"><g transform="translate(240.014995, 143.048763)"><g><path d="M 8.71875 -3.671875 C 9.4375 -3.671875 10.222656 -3.75 11.078125 -3.90625 C 11.929688 -4.0625 12.695312 -4.265625 13.375 -4.515625 L 13.375 -0.796875 C 12.375 -0.390625 11.472656 -0.113281 10.671875 0.03125 C 9.878906 0.1875 9.046875 0.265625 8.171875 0.265625 C 6.585938 0.265625 5.320312 0.0859375 4.375 -0.265625 C 3.4375 -0.628906 2.6875 -1.210938 2.125 -2.015625 C 1.65625 -2.703125 1.304688 -3.582031 1.078125 -4.65625 C 0.847656 -5.726562 0.734375 -7.023438 0.734375 -8.546875 C 0.734375 -11.597656 1.390625 -13.828125 2.703125 -15.234375 C 4.023438 -16.640625 6.117188 -17.34375 8.984375 -17.34375 C 9.816406 -17.34375 10.5625 -17.320312 11.21875 -17.28125 C 11.875 -17.25 12.460938 -17.191406 12.984375 -17.109375 L 12.984375 -13.421875 C 12.390625 -13.460938 11.769531 -13.488281 11.125 -13.5 C 10.476562 -13.519531 9.765625 -13.53125 8.984375 -13.53125 C 7.984375 -13.53125 7.242188 -13.4375 6.765625 -13.25 C 6.285156 -13.0625 5.925781 -12.726562 5.6875 -12.25 C 5.46875 -11.882812 5.3125 -11.398438 5.21875 -10.796875 C 5.132812 -10.203125 5.09375 -9.453125 5.09375 -8.546875 C 5.09375 -7.691406 5.132812 -6.976562 5.21875 -6.40625 C 5.300781 -5.84375 5.429688 -5.367188 5.609375 -4.984375 C 5.847656 -4.515625 6.191406 -4.175781 6.640625 -3.96875 C 7.097656 -3.769531 7.789062 -3.671875 8.71875 -3.671875 Z M 8.71875 -3.671875 "/></g></g></g><g fill="#5e17eb" fill-opacity="1"><g transform="translate(255.234642, 143.048763)"><g/></g></g><g fill="#5e17eb" fill-opacity="1"><g transform="translate(260.652934, 143.048763)"><g><path d="M 5.53125 0 L 1.3125 0 L 1.3125 -17.078125 L 5.53125 -17.078125 L 5.53125 -10.5625 L 11.515625 -10.5625 L 11.515625 -17.078125 L 15.734375 -17.078125 L 15.734375 0 L 11.515625 0 L 11.515625 -6.75 L 5.53125 -6.75 Z M 5.53125 0 "/></g></g></g><g fill="#5e17eb" fill-opacity="1"><g transform="translate(279.085239, 143.048763)"><g/></g></g><g fill="#5e17eb" fill-opacity="1"><g transform="translate(284.50353, 143.048763)"><g><path d="M 4.359375 0 L -0.078125 0 L 6.234375 -17.078125 L 10.625 -17.078125 L 16.78125 0 L 12.359375 0 L 11.46875 -2.859375 L 5.25 -2.859375 Z M 8.328125 -12.875 C 8.179688 -12.375 8.019531 -11.835938 7.84375 -11.265625 C 7.675781 -10.691406 7.394531 -9.757812 7 -8.46875 L 6.296875 -6.203125 L 10.40625 -6.203125 L 9.703125 -8.46875 C 9.460938 -9.15625 9.222656 -9.882812 8.984375 -10.65625 C 8.753906 -11.425781 8.535156 -12.164062 8.328125 -12.875 Z M 8.328125 -12.875 "/></g></g></g><g fill="#5e17eb" fill-opacity="1"><g transform="translate(302.636355, 143.048763)"><g/></g></g><g fill="#5e17eb" fill-opacity="1"><g transform="translate(308.054646, 143.048763)"><g><path d="M 13.859375 -17.078125 L 13.859375 -13.265625 L 9.203125 -13.265625 L 9.203125 0 L 4.984375 0 L 4.984375 -13.265625 L 0.328125 -13.265625 L 0.328125 -17.078125 Z M 13.859375 -17.078125 "/></g></g></g></svg>