<svg xmlns="http://www.w3.org/2000/svg" version="1.1" xmlns:xlink="http://www.w3.org/1999/xlink" xmlns:svgjs="http://svgjs.com/svgjs" width="1440" height="560" preserveAspectRatio="none" viewBox="0 0 1440 560"><g mask="url(&quot;#SvgjsMask1007&quot;)" fill="none"><path d="M181.49 515.82L222.94 515.82L222.94 557.27L181.49 557.27z" fill="rgba(131, 58, 180, 1)"></path><path d="M265.87 66.27a37.24 37.24 0 1 0 73.9 9.26z" fill="rgba(253, 29, 29, 1)"></path><path d="M85.73 41.26a15.4 15.4 0 1 0-2.18 30.72z" stroke="rgba(253, 29, 29, 1)"></path><path d="M176.01 213.54 a4.11 4.11 0 1 0 8.22 0 a4.11 4.11 0 1 0 -8.22 0z" stroke="rgba(253, 29, 29, 1)"></path><path d="M329.94 0.18 a1.01 1.01 0 1 0 2.02 0 a1.01 1.01 0 1 0 -2.02 0z" fill="rgba(253, 29, 29, 1)"></path><path d="M772.25 530.19 a38.35 38.35 0 1 0 76.7 0 a38.35 38.35 0 1 0 -76.7 0z" fill="rgba(252, 176, 69, 1)"></path><path d="M1047.14 243.27L1086.47 243.27L1086.47 282.6L1047.14 282.6z" fill="rgba(252, 176, 69, 1)"></path><path d="M885.73 488.57a0.28 0.28 0 1 0-0.16-0.53z" fill="rgba(253, 29, 29, 1)"></path><path d="M279.46 132.76 a17.92 17.92 0 1 0 35.84 0 a17.92 17.92 0 1 0 -35.84 0z" fill="rgba(131, 58, 180, 1)"></path><path d="M1241.17 356.8L1278.68 356.8L1278.68 394.31L1241.17 394.31z" stroke="rgba(252, 176, 69, 1)"></path><path d="M764.28 379.27 a50.45 50.45 0 1 0 100.9 0 a50.45 50.45 0 1 0 -100.9 0z" stroke="rgba(253, 29, 29, 1)"></path><path d="M609.01 46.04L614.92 46.04L614.92 51.95L609.01 51.95z" fill="rgba(252, 176, 69, 1)"></path><path d="M1258.59 416.43a37.24 37.24 0 1 0-69.76-26.11z" stroke="rgba(252, 176, 69, 1)"></path><path d="M0.54 371.17a39.06 39.06 0 1 0 77.82-6.79z" stroke="rgba(253, 29, 29, 1)"></path><path d="M665.16 383.26 a2.53 2.53 0 1 0 5.06 0 a2.53 2.53 0 1 0 -5.06 0z" fill="rgba(253, 29, 29, 1)"></path><path d="M64.35 201.72L103.47 201.72L103.47 223.99L64.35 223.99z" stroke="rgba(252, 176, 69, 1)"></path><path d="M431 306.74a5.44 5.44 0 1 0-10.75-1.66z" stroke="rgba(253, 29, 29, 1)"></path><path d="M1154.92 324.5L1162.6 324.5L1162.6 332.18L1154.92 332.18z" stroke="rgba(131, 58, 180, 1)"></path><path d="M169.36 225.32L185.11 225.32L185.11 241.07L169.36 241.07z" fill="rgba(131, 58, 180, 1)"></path><path d="M391.43 151.92L426.66 151.92L426.66 187.15L391.43 187.15z" fill="rgba(252, 176, 69, 1)"></path><path d="M1280.24 284.39L1321.74 284.39L1321.74 325.89L1280.24 325.89z" fill="rgba(131, 58, 180, 1)"></path><path d="M726.09 303.45a55.68 55.68 0 1 0 89.76 65.92z" fill="rgba(253, 29, 29, 1)"></path><path d="M230.42 430.32L282.96 430.32L282.96 482.86L230.42 482.86z" fill="rgba(253, 29, 29, 1)"></path><path d="M826.24 418.35a40.34 40.34 0 1 0-78.12 20.2z" stroke="rgba(252, 176, 69, 1)"></path><path d="M1187.18 39.3 a38.84 38.84 0 1 0 77.68 0 a38.84 38.84 0 1 0 -77.68 0z" stroke="rgba(131, 58, 180, 1)"></path><path d="M1186.15 205.06 a47.94 47.94 0 1 0 95.88 0 a47.94 47.94 0 1 0 -95.88 0z" stroke="rgba(253, 29, 29, 1)"></path><path d="M839.45 493.57 a55.38 55.38 0 1 0 110.76 0 a55.38 55.38 0 1 0 -110.76 0z" stroke="rgba(253, 29, 29, 1)"></path><path d="M877.16 424.99L893.88 424.99L893.88 441.71L877.16 441.71z" stroke="rgba(252, 176, 69, 1)"></path><path d="M1349.58 138.4L1388.86 138.4L1388.86 177.68L1349.58 177.68z" stroke="rgba(252, 176, 69, 1)"></path><path d="M566.09 140.88L570.58 140.88L570.58 166.14L566.09 166.14z" fill="rgba(131, 58, 180, 1)"></path><path d="M1066.53 263.85L1073.87 263.85L1073.87 271.19L1066.53 271.19z" fill="rgba(131, 58, 180, 1)"></path><path d="M816.68 277.44a50.7 50.7 0 1 0 7.14-101.15z" fill="rgba(252, 176, 69, 1)"></path><path d="M1113.93 91.56L1165.58 91.56L1165.58 117.44L1113.93 117.44z" stroke="rgba(131, 58, 180, 1)"></path></g><defs><mask id="SvgjsMask1007"><rect width="1440" height="560" fill="#ffffff"></rect></mask></defs></svg>