<svg xmlns="http://www.w3.org/2000/svg" version="1.1" xmlns:xlink="http://www.w3.org/1999/xlink" xmlns:svgjs="http://svgjs.com/svgjs" width="1440" height="560" preserveAspectRatio="none" viewBox="0 0 1440 560"><g mask="url(&quot;#SvgjsMask1017&quot;)" fill="none"><path d="M 0,335 C 96,273 288,31 480,25 C 672,19 768,271.4 960,305 C 1152,338.6 1344,215.4 1440,193L1440 560L0 560z" fill="rgba(252, 176, 69, 0.2)"></path><path d="M 0,66 C 57.6,115.2 172.8,315 288,312 C 403.2,309 460.8,51.8 576,51 C 691.2,50.2 748.8,303.6 864,308 C 979.2,312.4 1036.8,40 1152,73 C 1267.2,106 1382.4,393 1440,473L1440 560L0 560z" fill="rgba(253, 29, 29, 0.2)"></path><path d="M 0,253 C 96,291.8 288,458.2 480,447 C 672,435.8 768,226.2 960,197 C 1152,167.8 1344,280.2 1440,301L1440 560L0 560z" fill="rgba(131, 58, 180, 0.2)"></path></g><defs><mask id="SvgjsMask1017"><rect width="1440" height="560" fill="#ffffff"></rect></mask></defs></svg>