<svg xmlns="http://www.w3.org/2000/svg" version="1.1" xmlns:xlink="http://www.w3.org/1999/xlink" xmlns:svgjs="http://svgjs.com/svgjs" width="160" height="1000" preserveAspectRatio="none" viewBox="0 0 160 1000"><g mask="url(&quot;#SvgjsMask1024&quot;)" fill="none"><path d="M40 29.14C28.89 29.14 15.48 34.98 15.48 40C15.48 44.88 28.61 48.94 40 48.94C45.81 48.94 49.87 44.71 49.87 40C49.87 34.81 46.08 29.14 40 29.14" stroke="rgba(253, 29, 29, 0.5)" stroke-width="2"></path><path d="M80 77.42C78.77 77.42 77.71 78.63 77.71 80C77.71 81.66 78.74 83.48 80 83.48C81.39 83.48 83.02 81.63 83.02 80C83.02 78.6 81.42 77.42 80 77.42" stroke="rgba(253, 29, 29, 0.5)" stroke-width="2"></path><path d="M120 109.7C114.64 109.7 111.86 113.27 108.47 120C99.18 138.42 91.23 143.78 94.63 160C97 171.31 108.54 175.07 120 175.07C127.73 175.07 131.61 169.11 133 160C135.81 141.57 133.29 138.91 128.4 120C126.79 113.76 124.61 109.7 120 109.7" stroke="rgba(253, 29, 29, 0.5)" stroke-width="2"></path><path d="M9.06 200C9.06 196.25 1.23 197.57 0 192.13C-3.3 177.57 0 176.06 0 160C0 140 0 140 0 120C0 100 0 100 0 80C0 60 0 60 0 40C0 20 -10 10 0 0C10 -10 20 0 40 0C60 0 60 0 80 0C100 0 100 0 120 0C140 0 150 -10 160 0C170 10 160 20 160 40C160 60 160 60 160 80C160 100 160 100 160 120C160 140 160 140 160 160C160 180 160 180 160 200C160 220 160 220 160 240C160 250.97 162.95 251.84 160 261.94C157.11 271.84 148.33 272.42 148.33 280C148.33 284.71 158.34 280.81 160 286.51C164.17 300.81 160 303.25 160 320C160 336.18 168.68 348.28 160 352.36C148.68 357.69 137.03 336.45 120 338.82C109.53 340.27 105 349.8 105 360C105 368.96 110.07 374.91 120 377.14C137.57 381.09 148.14 365.58 160 372.36C168.14 377.01 160 386.18 160 400C160 417.27 161.35 417.64 160 434.55C159.75 437.64 158.97 437.71 156.8 440C138.97 458.84 139.52 460.27 120 476.8C115.91 480.27 109.57 476.76 109.57 480C109.57 485.03 112.5 491.38 120 493.33C137.72 497.94 148.04 485.15 160 493.13C168.04 498.49 160 506.57 160 520C160 540 160 540 160 560C160 580 160 580 160 600C160 620 160 620 160 640C160 656.3 168.38 663.1 160 672.59C150.73 683.1 124.71 675.06 124.71 680C124.71 685.15 149.77 681.18 160 692.77C167.42 701.18 160 706.38 160 720C160 740 160 740 160 760C160 780 160 780 160 800C160 820 160 820 160 840C160 860 160 860 160 880C160 893.51 163.35 894.74 160 907.03C157.9 914.74 149.09 913.44 149.09 920C149.09 926.78 157.82 925.71 160 933.71C163.27 945.71 160 946.86 160 960C160 971.22 167.05 976.74 160 982.44C147.05 992.91 139.3 985.77 120 992.33C113.46 994.55 114.93 998.73 108.33 1000C94.93 1002.57 94.16 1000 80 1000C60 1000 60 1000 40 1000C36 1000 35.1 1002.3 32 1000C15.1 987.48 12.93 986.53 0 970.37C-3.07 966.53 0 965.18 0 960C0 940 0 940 0 920C0 900 0 900 0 880C0 872.78 -5.02 869.4 0 865.56C14.98 854.1 20.95 859.02 40 849.41C46.28 846.24 50.67 844.87 50.67 840C50.67 834.83 46.78 832.13 40 829.33C21.45 821.67 13.68 829.12 0 819.09C-6.32 814.45 0 809.55 0 800C0 788.94 -2.29 788.42 0 777.89C2.07 768.42 8.45 769.52 8.72 760C9.26 740.57 5.56 739.89 1.62 720C1.2 717.89 0.09 718.14 0 716C-0.72 698.14 0 698 0 680C0 660 0 660 0 640C0 620 0 620 0 600C0 580 0 580 0 560C0 540 0 540 0 520C0 500 0 500 0 480C0 460 0 460 0 440C0 420 0 420 0 400C0 380 0 380 0 360C0 340 0 340 0 320C0 300 0 300 0 280C0 260 0 260 0 240C0 223.33 -3.39 221.62 0 206.67C1.14 201.62 9.06 203.52 9.06 200" stroke="rgba(253, 29, 29, 0.5)" stroke-width="2"></path><path d="M40 261.67C32.19 261.67 27.78 271.97 27.78 280C27.78 285.45 33.25 288.63 40 288.63C52.3 288.63 65.88 286.23 65.88 280C65.88 272.75 51.24 261.67 40 261.67" stroke="rgba(253, 29, 29, 0.5)" stroke-width="2"></path><path d="M80 288.28C71.04 288.28 65.4 305.12 65.4 320C65.4 329.66 71.67 337.36 80 337.36C90.76 337.36 103.59 330.44 103.59 320C103.59 305.9 90.14 288.28 80 288.28" stroke="rgba(253, 29, 29, 0.5)" stroke-width="2"></path><path d="M40 352C27.44 352 13.33 356.72 13.33 360C13.33 363.19 27.01 364.94 40 364.94C45.34 364.94 50 363.01 50 360C50 356.54 45.78 352 40 352" stroke="rgba(253, 29, 29, 0.5)" stroke-width="2"></path><path d="M40 437.87C38.23 438.95 36.44 438.44 36.44 440C36.44 442.84 36.55 445.84 40 446.67C58.33 451.06 63.01 453.05 80 450.43C84.61 449.72 83.2 445.36 83.2 440C83.2 426.81 87.86 413.72 80 413.33C66.26 412.65 60.01 425.62 40 437.87" stroke="rgba(253, 29, 29, 0.5)" stroke-width="2"></path><path d="M80 499.43C72.74 499.43 72.8 509.04 69.57 520C63.87 539.33 58.75 542.84 62.13 560C63.96 569.3 70.79 572.92 80 572.92C90.49 572.92 96.92 570.19 101.54 560C108.92 543.73 110.02 536.93 104 520C99.25 506.65 89.95 499.43 80 499.43" stroke="rgba(253, 29, 29, 0.5)" stroke-width="2"></path><path d="M40 581.22C31.86 581.22 22.64 591.91 22.64 600C22.64 606.35 31.59 610.11 40 610.11C47.14 610.11 53.73 606.11 53.73 600C53.73 591.66 47.4 581.22 40 581.22" stroke="rgba(253, 29, 29, 0.5)" stroke-width="2"></path><path d="M80 631.43C76.52 631.43 77.72 636.36 74 640C57.72 655.92 57.94 656.62 40 670.56C32.19 676.62 22.5 675.34 22.5 680C22.5 684.63 30.51 687.19 40 689.13C59.26 693.07 60.44 694.08 80 691.76C98.96 689.51 114.95 691.5 117.04 680C119.65 665.62 104.09 659.25 89.41 640C85.57 634.96 84.23 631.43 80 631.43" stroke="rgba(253, 29, 29, 0.5)" stroke-width="2"></path><path d="M80 755.29C76.84 755.86 75.36 757.28 75.36 760C75.36 764.21 76.49 765.48 80 769.14C95.68 785.48 97.25 784.21 113.75 800C117.25 803.35 116.65 807.41 120 807.41C123.77 807.41 125.58 804.79 128 800C137.58 781.08 146.52 775.12 144 760C142.52 751.12 132.37 752.91 120 752C100.37 750.56 99.16 751.86 80 755.29" stroke="rgba(253, 29, 29, 0.5)" stroke-width="2"></path><path d="M120 860.47C106.19 860.47 90 870.92 90 880C90 888.61 105.91 895.85 120 895.85C130.04 895.85 138.26 888.4 138.26 880C138.26 870.71 130.32 860.47 120 860.47" stroke="rgba(253, 29, 29, 0.5)" stroke-width="2"></path><path d="M40 14.86C22.93 6.56 16.22 15.44 0 9.41C-3.78 8.01 -3.81 0.9 0 0C16.19 -3.81 20 0 40 0C57.93 0 58.44 -1.45 75.86 0C78.44 0.21 78.19 1.39 80 3.33C96.76 21.39 96.76 21.45 113 40C116.76 44.3 116.67 49.03 120 49.03C123.15 49.03 125.22 45.22 125.96 40C128.68 20.7 117.6 10.95 126.92 0C134.62 -9.05 152.51 -9.05 160 0C169.05 10.95 160 20 160 40C160 60 160 60 160 80C160 100 160 100 160 120C160 140 160 140 160 160C160 178.13 163.49 196.25 160 196.25C156.24 196.25 150.24 178.76 145.5 160C140.61 140.64 147.76 138.03 140.74 120C135.01 105.31 131.38 106.26 120 94.55C111.95 86.26 110.82 87.43 101.89 80C90.82 70.8 90.29 61.29 80 61.29C71.06 61.29 63.43 70.05 63.43 80C63.43 92.01 71.33 92.88 80 105.22C85.38 112.88 91.53 111.93 91.53 120C91.53 131.92 87.41 133.71 80 145.19C74.5 153.71 68.98 150.74 65.71 160C59.3 178.14 67.94 182.18 60.65 200C55.08 213.61 49.37 210.72 40 222.86C33.94 230.72 35.5 231.84 29.79 240C15.5 260.41 8.27 280 0 280C-6.63 280 0 260 0 240C0 230.28 -5.02 227.74 0 220.56C8.94 207.74 27.92 210.84 27.92 200C27.92 188.43 9.79 189.77 0 175.74C-4.17 169.77 0 167.87 0 160C0 147.02 -7.8 140.43 0 134.05C12.2 124.07 21.1 132.85 40 127.27C44.91 125.82 47.62 123.01 47.62 120C47.62 117.6 43.88 118.07 40 116.44C20.07 108.07 13.68 112.46 0 100C-6.32 94.24 0 90 0 80C0 70 -6.67 63.21 0 60C13.33 53.57 22.25 66.36 40 60.71C53.68 56.36 62.86 50.91 62.86 40C62.86 27.98 54.36 21.85 40 14.86" stroke="rgba(253, 29, 29, 0.5)" stroke-width="2"></path><path d="M98.18 200C107.21 192.44 108.7 189.57 120 189.57C136.75 189.57 147.79 188.17 154.29 200C161.64 213.38 154.05 221 147.69 240C140.66 261 124.14 264.12 127.5 280C130.29 293.19 149.76 285.54 160 298.14C166.01 305.54 160 309.07 160 320C160 330.56 165.83 341.12 160 341.12C149.05 341.12 139.5 333.44 126.43 320C119.5 312.88 124.52 309.38 120 300C114.88 289.38 114.95 288.85 107.14 280C94.95 266.18 94.03 266.8 80 254.67C70.89 246.8 60.87 247.67 60.87 240C60.87 231.87 71.32 232.38 80 223.08C89.98 212.38 87.21 209.19 98.18 200" stroke="rgba(253, 29, 29, 0.5)" stroke-width="2"></path><path d="M8.42 320C8.42 314.07 25.82 308.24 40 308.24C46.37 308.24 49.52 314.1 49.52 320C49.52 325.98 46.41 332 40 332C25.86 332 8.42 325.95 8.42 320" stroke="rgba(253, 29, 29, 0.5)" stroke-width="2"></path><path d="M75 360C75 357.7 77.58 356.23 80 356.23C82.17 356.23 84.17 357.78 84.17 360C84.17 363.37 82.24 367.41 80 367.41C77.65 367.41 75 363.29 75 360" stroke="rgba(253, 29, 29, 0.5)" stroke-width="2"></path><path d="M0 374.81C12.28 367.83 22.18 370.59 40 377.28C55.71 383.18 67.06 388.38 67.06 400C67.06 412.01 54.49 413.56 40 424.53C28.07 433.56 15.2 428.91 14.22 440C12.76 456.65 24.19 460.3 35.12 480C37.08 483.53 38.2 482.84 40 486.45C48.18 502.84 54.87 502.93 55.07 520C55.3 539.7 48.18 540.14 40.85 560C40.65 560.55 40.4 560.39 40 560.82C21.86 580.39 18.25 578.58 3.77 600C-1.75 608.17 0.95 620 0 620C-0.93 620 0 610 0 600C0 580 0 580 0 560C0 540 0 540 0 520C0 500 0 500 0 480C0 460 0 460 0 440C0 420 0 420 0 400C0 387.4 -7.72 379.19 0 374.81" stroke="rgba(253, 29, 29, 0.5)" stroke-width="2"></path><path d="M122.86 400C141.41 395.2 145.1 390.55 160 390.55C163.67 390.55 160 395.27 160 400C160 405.91 162.2 406.51 160 411.82C153.93 426.51 153.39 427.19 143.47 440C133.39 453.01 131.74 463.47 120 463.47C108.26 463.47 96.53 453.18 96.53 440C96.53 421.89 107.65 419.66 120 400.89C120.81 399.66 121.41 400.37 122.86 400" stroke="rgba(253, 29, 29, 0.5)" stroke-width="2"></path><path d="M135.76 520C135.76 511.73 151.59 508.06 160 508.06C163.71 508.06 160 514.03 160 520C160 533.34 165.15 546.67 160 546.67C153.03 546.67 135.76 531.03 135.76 520" stroke="rgba(253, 29, 29, 0.5)" stroke-width="2"></path><path d="M68.66 600C68.66 593.94 73.31 592.86 80 588.31C98.98 575.4 98.56 570.86 120 565.09C138.56 560.1 149.07 557.24 160 566.78C169.07 574.7 160 583.39 160 600C160 620 160 620 160 640C160 650.13 166.69 657.72 160 660.25C146.69 665.29 137.41 662.06 120 655.14C111.92 651.93 115.47 646.71 109.02 640C95.47 625.92 93.91 627.36 80 613.57C73.73 607.36 68.66 606.57 68.66 600" stroke="rgba(253, 29, 29, 0.5)" stroke-width="2"></path><path d="M4.17 640C4.17 630.47 23.2 621.1 40 621.1C51.87 621.1 61.5 630.49 61.5 640C61.5 649.6 51.9 659.33 40 659.33C23.24 659.33 4.17 649.58 4.17 640" stroke="rgba(253, 29, 29, 0.5)" stroke-width="2"></path><path d="M0 668.57C0.42 668.57 1.67 674.46 1.67 680C1.67 681.51 0.45 682.67 0 682.67C-0.38 682.67 0 681.34 0 680C0 674.29 -0.42 668.57 0 668.57" stroke="rgba(253, 29, 29, 0.5)" stroke-width="2"></path><path d="M15.14 720C19.21 706.78 25.64 703.65 40 700C58.07 695.41 60.29 705.22 80 703.53C100.29 701.79 100.88 690.63 120 693.14C140.88 695.88 142.33 702.18 160 714.04C162.33 715.61 160 717.02 160 720C160 727 165.13 731.32 160 734C145.13 741.77 140.15 739.23 120 740.89C100.15 742.53 97.58 734.91 80 740.59C68.02 744.46 60.87 748.81 60.87 760C60.87 777.37 69.99 779.19 80 797.71C80.8 799.19 81.54 798.61 82.5 800C96.09 819.75 109.84 824.22 109.09 840C108.59 850.38 92.48 852.31 80 852.31C74.38 852.31 77.57 845.29 72.89 840C57.57 822.69 58.69 819.66 40 807.11C28.91 799.66 17.05 809.5 13.33 800C7.82 785.95 21.09 780.08 21.54 760C21.99 740.08 9.98 736.78 15.14 720" stroke="rgba(253, 29, 29, 0.5)" stroke-width="2"></path><path d="M18.46 880C25.85 871.15 29.47 869.02 40 869.02C48.99 869.02 54.54 871.32 57.5 880C63.23 896.81 62.99 902.63 57.39 920C54.24 929.77 50.04 933.92 40 934.29C21.35 934.98 19.04 928.91 0 922.11C-0.96 921.77 0 921.06 0 920C0 918.46 -0.64 918.31 0 916.92C8.59 898.31 5.85 895.1 18.46 880" stroke="rgba(253, 29, 29, 0.5)" stroke-width="2"></path><path d="M106 920C109.63 914.08 113.44 914.72 120 914.72C123.62 914.72 123.72 916.84 126.36 920C142.61 939.48 159.52 943.96 157.78 960C156.34 973.28 138.27 978.63 120 978.63C105.5 978.63 95.33 972.94 92.24 960C88.33 943.63 95.75 936.72 106 920" stroke="rgba(253, 29, 29, 0.5)" stroke-width="2"></path><path d="M67.59 1000C67.59 995.42 74.65 985 80 985C84.61 985 87.5 994.82 87.5 1000C87.5 1002.32 83.75 1000 80 1000C73.8 1000 67.59 1002.92 67.59 1000" stroke="rgba(253, 29, 29, 0.5)" stroke-width="2"></path><path d="M40 0.57C39.1 0.57 38.18 0.15 38.18 0C38.18 -0.14 39.09 0 40 0C40.69 0 41.38 -0.14 41.38 0C41.38 0.15 40.7 0.57 40 0.57" stroke="rgba(253, 29, 29, 0.5)" stroke-width="2"></path><path d="M75.84 40C75.84 35.81 77.26 31.11 80 31.11C83.34 31.11 88 36.09 88 40C88 43.11 83.58 45.16 80 45.16C77.5 45.16 75.84 42.83 75.84 40" stroke="rgba(253, 29, 29, 0.5)" stroke-width="2"></path><path d="M147.23 40C142.66 21.46 141.41 14.86 146.15 0C147.79 -5.14 158.22 -5.14 160 0C165.14 14.86 160 20 160 40C160 48.11 162.81 56.22 160 56.22C156.42 56.22 149.59 49.57 147.23 40" stroke="rgba(253, 29, 29, 0.5)" stroke-width="2"></path><path d="M17.14 80C17.14 74.87 29.28 72.47 40 72.47C45.28 72.47 49.14 75.52 49.14 80C49.14 86.39 46.17 94.22 40 94.22C30.17 94.22 17.14 85.74 17.14 80" stroke="rgba(253, 29, 29, 0.5)" stroke-width="2"></path><path d="M153.09 120C153.39 111.75 158.19 104.44 160 104.44C161.65 104.44 160 112.22 160 120C160 140 160 140 160 160C160 162.5 160.48 165 160 165C159.48 165 158.41 162.65 158 160C154.95 140.15 152.39 139.53 153.09 120" stroke="rgba(253, 29, 29, 0.5)" stroke-width="2"></path><path d="M0 234.44C2.75 234.44 8.51 236.46 8.51 240C8.51 244.96 2.36 251.43 0 251.43C-1.89 251.43 0 245.72 0 240C0 237.22 -1.5 234.44 0 234.44" stroke="rgba(253, 29, 29, 0.5)" stroke-width="2"></path><path d="M144.29 320C144.29 314.95 154.92 309.77 160 309.77C162.77 309.77 160 314.88 160 320C160 324.94 162.73 329.89 160 329.89C154.88 329.89 144.29 325.01 144.29 320" stroke="rgba(253, 29, 29, 0.5)" stroke-width="2"></path><path d="M0 393.33C17.15 388.88 21.32 387.25 40 389.63C47.5 390.59 52.35 394.7 52.35 400C52.35 405.48 47.57 408.31 40 411.2C21.4 418.31 13.44 423.76 0 420C-6.56 418.16 0 410 0 400C0 396.66 -2.85 394.07 0 393.33" stroke="rgba(253, 29, 29, 0.5)" stroke-width="2"></path><path d="M109.87 440C109.87 432.18 114.94 423.11 120 423.11C125.06 423.11 130.13 432.18 130.13 440C130.13 445.69 125.06 450.13 120 450.13C114.94 450.13 109.87 445.69 109.87 440" stroke="rgba(253, 29, 29, 0.5)" stroke-width="2"></path><path d="M0 458C2.83 458 4.02 469.82 10.73 480C24.02 500.18 25.5 499.28 40 518.71C40.42 519.28 40.58 519.34 40.58 520C40.58 520.79 40.8 521.36 40 521.6C20.51 527.42 15.47 532.74 0 532.12C-4.53 531.94 0 526.06 0 520C0 500 0 500 0 480C0 469 -2.54 458 0 458" stroke="rgba(253, 29, 29, 0.5)" stroke-width="2"></path><path d="M88.28 600C88.28 589.88 103.05 587.12 120 583.27C138.91 578.98 145.78 577.78 160 583.73C165.78 586.15 160 591.87 160 600C160 620 160 620 160 640C160 643.95 162.85 647.9 160 647.9C151 647.9 147.21 645.68 136.3 640C127.21 635.26 127.99 633.72 120 627.06C103.98 613.72 88.28 611.77 88.28 600" stroke="rgba(253, 29, 29, 0.5)" stroke-width="2"></path><path d="M25 640C25 636.01 32.97 632.09 40 632.09C44.97 632.09 49 636.02 49 640C49 644.02 44.98 648.09 40 648.09C32.98 648.09 25 644.01 25 640" stroke="rgba(253, 29, 29, 0.5)" stroke-width="2"></path><path d="M28.65 720C29.4 713.49 33.18 711.5 40 710.87C58.85 709.14 60.13 716.14 80 715.29C100.13 714.42 100.88 705.98 120 707.43C131.88 708.33 142 714.27 142 720C142 725.44 131.61 728.68 120 729.78C100.61 731.62 96.79 718.99 80 725.88C59.98 734.1 61.15 741.6 46.38 760C41.15 766.51 43.03 775.71 40 775.71C37.02 775.71 36.02 768.14 34.36 760C30.34 740.29 26.58 738.06 28.65 720" stroke="rgba(253, 29, 29, 0.5)" stroke-width="2"></path><path d="M112.65 960C112.65 954.23 115.86 946.67 120 946.67C124.53 946.67 130 954.53 130 960C130 963.66 124.84 964.93 120 964.93C116.16 964.93 112.65 963.36 112.65 960" stroke="rgba(253, 29, 29, 0.5)" stroke-width="2"></path></g><defs><mask id="SvgjsMask1024"><rect width="160" height="1000" fill="#ffffff"></rect></mask></defs></svg>