<svg xmlns="http://www.w3.org/2000/svg" xmlns:xlink="http://www.w3.org/1999/xlink" width="500" zoomAndPan="magnify" viewBox="0 0 375 374.999991" height="500" preserveAspectRatio="xMidYMid meet" version="1.0"><defs><g/><clipPath id="a9c8e8642d"><path d="M 50 58 L 318 58 L 318 325 L 50 325 Z M 50 58 " clip-rule="nonzero"/></clipPath><clipPath id="2973bf0fbf"><path d="M 188.445312 1.929688 L 334.148438 154.199219 L 140.148438 339.824219 L -5.550781 187.554688 Z M 188.445312 1.929688 " clip-rule="nonzero"/></clipPath><clipPath id="4c45a4ab0d"><path d="M 188.445312 1.929688 L 374.074219 195.925781 L 180.074219 381.550781 L -5.550781 187.554688 Z M 188.445312 1.929688 " clip-rule="nonzero"/></clipPath><clipPath id="1d71b3c1d2"><path d="M 243.648438 211.566406 L 256.839844 211.566406 L 256.839844 224.757812 L 243.648438 224.757812 Z M 243.648438 211.566406 " clip-rule="nonzero"/></clipPath><clipPath id="ea37541228"><path d="M 250.246094 211.566406 C 246.601562 211.566406 243.648438 214.519531 243.648438 218.164062 C 243.648438 221.804688 246.601562 224.757812 250.246094 224.757812 C 253.886719 224.757812 256.839844 221.804688 256.839844 218.164062 C 256.839844 214.519531 253.886719 211.566406 250.246094 211.566406 " clip-rule="nonzero"/></clipPath></defs><g clip-path="url(#a9c8e8642d)"><g clip-path="url(#2973bf0fbf)"><g clip-path="url(#4c45a4ab0d)"><path fill="#ffffff" d="M 245.46875 307.484375 C 234.742188 313.039062 223.203125 316.882812 211.429688 319.222656 C 201.792969 321.074219 192.011719 322.054688 182.21875 322.007812 C 180.914062 322.039062 179.613281 321.921875 178.3125 321.875 C 177.011719 321.804688 175.707031 321.777344 174.40625 321.675781 L 170.515625 321.320312 L 168.566406 321.140625 L 166.632812 320.878906 L 162.757812 320.359375 C 161.46875 320.15625 160.191406 319.902344 158.90625 319.679688 C 156.328125 319.28125 153.800781 318.652344 151.246094 318.105469 C 150.878906 318.027344 150.496094 317.941406 150.09375 317.855469 C 149.699219 317.746094 149.289062 317.632812 148.859375 317.519531 C 148.003906 317.28125 147.082031 317.027344 146.105469 316.757812 C 144.128906 316.261719 141.984375 315.492188 139.613281 314.710938 C 139.027344 314.507812 138.417969 314.324219 137.808594 314.09375 C 137.203125 313.859375 136.589844 313.617188 135.960938 313.371094 C 134.707031 312.878906 133.40625 312.367188 132.0625 311.839844 C 129.453125 310.625 126.609375 309.476562 123.792969 307.945312 C 112.3125 302.265625 99.96875 293.269531 89.496094 282.414062 C 79.113281 271.472656 70.671875 258.746094 65.5 247.027344 C 64.097656 244.144531 63.074219 241.253906 61.976562 238.589844 C 61.507812 237.226562 61.054688 235.90625 60.617188 234.632812 C 60.402344 233.992188 60.1875 233.367188 59.976562 232.753906 C 59.773438 232.136719 59.617188 231.519531 59.441406 230.921875 C 58.761719 228.523438 58.089844 226.34375 57.679688 224.347656 C 57.453125 223.359375 57.242188 222.425781 57.046875 221.5625 C 56.945312 221.128906 56.851562 220.714844 56.761719 220.3125 C 56.691406 219.910156 56.625 219.519531 56.5625 219.152344 C 54.777344 209.519531 53.859375 199.738281 53.972656 189.945312 C 54.199219 179.515625 55.703125 169.144531 58.097656 158.980469 C 60.953125 147.316406 65.304688 135.960938 71.324219 125.488281 C 77.222656 114.941406 84.847656 105.378906 93.535156 96.921875 C 102.367188 88.617188 112.257812 81.417969 123.054688 75.996094 C 133.78125 70.441406 145.316406 66.597656 157.09375 64.253906 C 166.726562 62.40625 176.507812 61.425781 186.300781 61.472656 C 187.605469 61.441406 188.90625 61.554688 190.210938 61.601562 C 191.511719 61.671875 192.816406 61.703125 194.113281 61.800781 L 198.007812 62.160156 L 199.953125 62.335938 L 201.890625 62.601562 L 205.765625 63.121094 C 207.050781 63.324219 208.328125 63.578125 209.613281 63.796875 C 212.191406 64.199219 214.722656 64.828125 217.273438 65.371094 C 217.640625 65.453125 218.023438 65.539062 218.425781 65.625 C 218.820312 65.734375 219.234375 65.84375 219.660156 65.960938 C 220.515625 66.195312 221.4375 66.449219 222.417969 66.722656 C 224.390625 67.21875 226.539062 67.988281 228.90625 68.765625 C 229.496094 68.96875 230.105469 69.15625 230.710938 69.386719 C 231.316406 69.621094 231.933594 69.863281 232.5625 70.109375 C 233.816406 70.601562 235.117188 71.113281 236.457031 71.640625 C 239.070312 72.851562 241.914062 74.003906 244.726562 75.53125 C 256.210938 81.214844 268.550781 90.210938 279.027344 101.066406 C 289.40625 112.007812 297.847656 124.734375 303.019531 136.453125 C 304.421875 139.335938 305.445312 142.222656 306.542969 144.890625 C 307.011719 146.25 307.464844 147.574219 307.902344 148.847656 C 308.121094 149.484375 308.335938 150.113281 308.542969 150.726562 C 308.746094 151.34375 308.902344 151.960938 309.082031 152.558594 C 309.757812 154.957031 310.429688 157.136719 310.839844 159.128906 C 311.066406 160.121094 311.277344 161.050781 311.476562 161.917969 C 311.574219 162.347656 311.667969 162.765625 311.757812 163.167969 C 311.828125 163.570312 311.894531 163.957031 311.960938 164.328125 C 313.746094 173.960938 314.660156 183.742188 314.546875 193.535156 C 314.324219 203.964844 312.816406 214.335938 310.421875 224.5 C 307.566406 236.164062 303.214844 247.519531 297.195312 257.992188 C 291.300781 268.535156 283.671875 278.101562 274.988281 286.558594 C 266.15625 294.863281 256.265625 302.058594 245.46875 307.484375 Z M 277.136719 288.675781 L 277.144531 288.667969 C 286.011719 280.03125 293.808594 270.265625 299.847656 259.492188 C 306.011719 248.796875 310.460938 237.183594 313.347656 225.261719 L 314.601562 219.652344 C 314.601562 219.652344 314.898438 218.097656 315.335938 215.765625 C 315.84375 213.445312 316.191406 210.296875 316.652344 207.167969 C 316.917969 204.015625 317.296875 200.875 317.335938 198.503906 C 317.441406 196.132812 317.507812 194.554688 317.507812 194.554688 C 317.507812 194.554688 317.519531 194.160156 317.523438 193.46875 C 317.523438 192.777344 317.53125 191.789062 317.535156 190.605469 C 317.609375 188.230469 317.417969 185.078125 317.292969 181.917969 C 317.179688 180.34375 317.015625 178.769531 316.890625 177.292969 C 316.820312 176.554688 316.757812 175.84375 316.695312 175.167969 C 316.601562 174.496094 316.511719 173.859375 316.429688 173.269531 C 316.105469 170.921875 315.886719 169.355469 315.886719 169.355469 C 315.886719 169.355469 315.855469 169 315.753906 168.46875 C 315.660156 167.941406 315.539062 167.234375 315.414062 166.527344 C 315.167969 165.113281 314.917969 163.699219 314.917969 163.699219 C 314.855469 163.320312 314.785156 162.925781 314.714844 162.511719 C 314.625 162.101562 314.53125 161.675781 314.429688 161.230469 C 314.230469 160.34375 314.015625 159.390625 313.785156 158.378906 C 313.371094 156.335938 312.6875 154.105469 311.996094 151.648438 C 311.816406 151.039062 311.652344 150.40625 311.449219 149.773438 C 311.234375 149.144531 311.015625 148.503906 310.796875 147.851562 C 310.347656 146.542969 309.886719 145.191406 309.410156 143.792969 C 308.289062 141.066406 307.242188 138.109375 305.808594 135.160156 C 300.523438 123.15625 291.886719 110.121094 281.257812 98.925781 C 270.546875 87.816406 257.902344 78.613281 246.144531 72.804688 C 243.261719 71.242188 240.351562 70.0625 237.675781 68.828125 C 236.300781 68.289062 234.972656 67.765625 233.683594 67.261719 C 233.042969 67.011719 232.410156 66.765625 231.792969 66.523438 C 231.171875 66.292969 230.546875 66.101562 229.941406 65.894531 C 227.519531 65.097656 225.320312 64.316406 223.300781 63.8125 C 222.296875 63.535156 221.355469 63.28125 220.476562 63.039062 C 220.039062 62.921875 219.617188 62.808594 219.210938 62.699219 C 218.800781 62.609375 218.40625 62.523438 218.03125 62.445312 C 218.03125 62.445312 216.632812 62.132812 215.230469 61.824219 C 214.527344 61.671875 213.828125 61.515625 213.304688 61.398438 C 212.78125 61.273438 212.425781 61.230469 212.425781 61.230469 C 212.425781 61.230469 210.871094 60.941406 208.539062 60.511719 C 207.953125 60.40625 207.324219 60.289062 206.65625 60.164062 C 205.984375 60.074219 205.273438 59.976562 204.539062 59.878906 C 203.070312 59.683594 201.507812 59.449219 199.9375 59.269531 C 196.785156 59.007812 193.644531 58.675781 191.269531 58.644531 C 190.085938 58.597656 189.097656 58.558594 188.40625 58.53125 C 187.71875 58.503906 187.320312 58.5 187.320312 58.5 C 187.320312 58.5 185.742188 58.496094 183.371094 58.496094 C 181 58.429688 177.84375 58.671875 174.683594 58.796875 C 171.539062 59.121094 168.378906 59.328125 166.035156 59.730469 C 163.6875 60.070312 162.121094 60.292969 162.121094 60.292969 L 156.464844 61.300781 C 144.421875 63.65625 132.625 67.59375 121.667969 73.277344 C 110.640625 78.835938 100.542969 86.195312 91.519531 94.675781 L 91.511719 94.679688 L 91.449219 94.742188 L 91.382812 94.804688 L 91.378906 94.8125 C 82.511719 103.449219 74.710938 113.214844 68.671875 123.984375 C 62.511719 134.683594 58.058594 146.292969 55.175781 158.21875 L 53.917969 163.828125 C 53.917969 163.828125 53.625 165.382812 53.183594 167.714844 C 52.679688 170.035156 52.332031 173.183594 51.871094 176.3125 C 51.605469 179.464844 51.222656 182.605469 51.183594 184.976562 C 51.082031 187.34375 51.011719 188.925781 51.011719 188.925781 C 51.011719 188.925781 51 189.320312 51 190.011719 C 50.996094 190.703125 50.988281 191.6875 50.984375 192.875 C 50.910156 195.246094 51.105469 198.402344 51.230469 201.5625 C 51.339844 203.136719 51.503906 204.707031 51.632812 206.183594 C 51.699219 206.921875 51.765625 207.636719 51.828125 208.3125 C 51.921875 208.984375 52.007812 209.621094 52.089844 210.207031 C 52.417969 212.558594 52.636719 214.121094 52.636719 214.121094 C 52.636719 214.121094 52.664062 214.480469 52.765625 215.007812 C 52.859375 215.539062 52.984375 216.246094 53.105469 216.953125 C 53.355469 218.367188 53.601562 219.78125 53.601562 219.78125 C 53.667969 220.15625 53.734375 220.554688 53.804688 220.96875 C 53.894531 221.378906 53.992188 221.804688 54.089844 222.25 C 54.289062 223.136719 54.507812 224.085938 54.734375 225.101562 C 55.152344 227.140625 55.835938 229.375 56.523438 231.832031 C 56.703125 232.441406 56.867188 233.074219 57.074219 233.707031 C 57.285156 234.335938 57.503906 234.976562 57.726562 235.628906 C 58.171875 236.933594 58.636719 238.289062 59.113281 239.683594 C 60.230469 242.414062 61.28125 245.371094 62.710938 248.320312 C 68 260.320312 76.636719 273.359375 87.261719 284.554688 C 97.976562 295.660156 110.621094 304.863281 122.378906 310.675781 C 125.261719 312.234375 128.171875 313.414062 130.847656 314.652344 C 132.21875 315.191406 133.550781 315.714844 134.835938 316.214844 C 135.480469 316.46875 136.109375 316.714844 136.730469 316.953125 C 137.351562 317.1875 137.976562 317.378906 138.578125 317.585938 C 141.003906 318.382812 143.203125 319.164062 145.222656 319.667969 C 146.226562 319.941406 147.167969 320.199219 148.042969 320.4375 C 148.480469 320.558594 148.90625 320.671875 149.308594 320.78125 C 149.722656 320.867188 150.113281 320.953125 150.488281 321.035156 C 150.488281 321.035156 151.890625 321.34375 153.292969 321.65625 C 153.992188 321.808594 154.691406 321.964844 155.21875 322.078125 C 155.738281 322.203125 156.097656 322.25 156.097656 322.25 C 156.097656 322.25 157.652344 322.535156 159.984375 322.964844 C 160.566406 323.074219 161.199219 323.191406 161.863281 323.3125 C 162.539062 323.40625 163.246094 323.503906 163.980469 323.601562 C 165.453125 323.792969 167.015625 324.027344 168.585938 324.210938 C 171.734375 324.472656 174.878906 324.804688 177.25 324.835938 C 178.433594 324.882812 179.421875 324.921875 180.113281 324.949219 C 180.804688 324.976562 181.199219 324.980469 181.199219 324.980469 C 181.199219 324.980469 182.78125 324.980469 185.148438 324.984375 C 187.523438 325.050781 190.675781 324.808594 193.835938 324.679688 C 196.984375 324.359375 200.144531 324.152344 202.484375 323.75 C 204.835938 323.410156 206.398438 323.183594 206.398438 323.183594 L 212.058594 322.179688 C 224.097656 319.824219 235.894531 315.886719 246.851562 310.203125 C 257.878906 304.644531 267.980469 297.28125 277 288.804688 L 277.007812 288.800781 L 277.074219 288.738281 L 277.136719 288.675781 " fill-opacity="1" fill-rule="nonzero"/></g></g></g><g fill="#ffffff" fill-opacity="1"><g transform="translate(164.423901, 314.25593)"><g><path d="M 1.53125 0.375 L 4.546875 -11.828125 L 9.59375 -10.578125 C 10.125 -10.453125 10.578125 -10.222656 10.953125 -9.890625 C 11.335938 -9.554688 11.644531 -9.164062 11.875 -8.71875 C 12.113281 -8.28125 12.265625 -7.8125 12.328125 -7.3125 C 12.398438 -6.8125 12.378906 -6.328125 12.265625 -5.859375 C 12.140625 -5.347656 11.929688 -4.878906 11.640625 -4.453125 C 11.359375 -4.035156 11.019531 -3.6875 10.625 -3.40625 C 10.226562 -3.132812 9.789062 -2.941406 9.3125 -2.828125 C 8.832031 -2.710938 8.328125 -2.71875 7.796875 -2.84375 L 3.84375 -3.828125 L 2.734375 0.671875 Z M 4.109375 -4.890625 L 8 -3.921875 C 8.351562 -3.835938 8.695312 -3.835938 9.03125 -3.921875 C 9.363281 -4.003906 9.664062 -4.148438 9.9375 -4.359375 C 10.207031 -4.566406 10.441406 -4.828125 10.640625 -5.140625 C 10.847656 -5.453125 10.992188 -5.789062 11.078125 -6.15625 C 11.171875 -6.53125 11.191406 -6.898438 11.140625 -7.265625 C 11.085938 -7.640625 10.976562 -7.976562 10.8125 -8.28125 C 10.65625 -8.59375 10.441406 -8.859375 10.171875 -9.078125 C 9.910156 -9.296875 9.613281 -9.445312 9.28125 -9.53125 L 5.484375 -10.46875 Z M 4.109375 -4.890625 "/></g></g></g><g fill="#ffffff" fill-opacity="1"><g transform="translate(183.1105, 318.178673)"><g><path d="M 1.578125 0.109375 L 2.46875 -12.421875 L 7.765625 -12.046875 C 8.304688 -12.003906 8.796875 -11.851562 9.234375 -11.59375 C 9.671875 -11.332031 10.039062 -11.003906 10.34375 -10.609375 C 10.644531 -10.210938 10.867188 -9.769531 11.015625 -9.28125 C 11.171875 -8.800781 11.226562 -8.328125 11.1875 -7.859375 C 11.15625 -7.398438 11.054688 -6.960938 10.890625 -6.546875 C 10.722656 -6.128906 10.503906 -5.765625 10.234375 -5.453125 C 9.972656 -5.140625 9.664062 -4.878906 9.3125 -4.671875 C 8.957031 -4.460938 8.566406 -4.328125 8.140625 -4.265625 L 10.859375 0.78125 L 9.453125 0.671875 L 6.84375 -4.15625 L 3.140625 -4.421875 L 2.8125 0.203125 Z M 3.21875 -5.515625 L 7.3125 -5.21875 C 7.675781 -5.195312 8.015625 -5.253906 8.328125 -5.390625 C 8.640625 -5.535156 8.910156 -5.734375 9.140625 -5.984375 C 9.378906 -6.242188 9.566406 -6.539062 9.703125 -6.875 C 9.835938 -7.207031 9.914062 -7.5625 9.9375 -7.9375 C 9.96875 -8.3125 9.929688 -8.675781 9.828125 -9.03125 C 9.722656 -9.382812 9.5625 -9.695312 9.34375 -9.96875 C 9.132812 -10.25 8.878906 -10.476562 8.578125 -10.65625 C 8.273438 -10.832031 7.953125 -10.929688 7.609375 -10.953125 L 3.625 -11.234375 Z M 3.21875 -5.515625 "/></g></g></g><g fill="#ffffff" fill-opacity="1"><g transform="translate(202.807468, 318.923495)"><g><path d="M 6.609375 -0.640625 C 5.742188 -0.535156 4.929688 -0.625 4.171875 -0.90625 C 3.410156 -1.1875 2.734375 -1.59375 2.140625 -2.125 C 1.554688 -2.664062 1.082031 -3.300781 0.71875 -4.03125 C 0.363281 -4.757812 0.144531 -5.523438 0.0625 -6.328125 C -0.03125 -7.160156 0.0234375 -7.972656 0.234375 -8.765625 C 0.441406 -9.566406 0.78125 -10.289062 1.25 -10.9375 C 1.71875 -11.582031 2.289062 -12.113281 2.96875 -12.53125 C 3.644531 -12.957031 4.394531 -13.21875 5.21875 -13.3125 C 6.09375 -13.40625 6.910156 -13.304688 7.671875 -13.015625 C 8.429688 -12.734375 9.097656 -12.316406 9.671875 -11.765625 C 10.253906 -11.222656 10.726562 -10.585938 11.09375 -9.859375 C 11.457031 -9.140625 11.679688 -8.390625 11.765625 -7.609375 C 11.859375 -6.773438 11.796875 -5.957031 11.578125 -5.15625 C 11.367188 -4.363281 11.035156 -3.648438 10.578125 -3.015625 C 10.117188 -2.378906 9.550781 -1.84375 8.875 -1.40625 C 8.195312 -0.976562 7.441406 -0.722656 6.609375 -0.640625 Z M 1.28125 -6.46875 C 1.351562 -5.78125 1.535156 -5.132812 1.828125 -4.53125 C 2.117188 -3.9375 2.492188 -3.414062 2.953125 -2.96875 C 3.421875 -2.519531 3.953125 -2.1875 4.546875 -1.96875 C 5.148438 -1.75 5.796875 -1.679688 6.484375 -1.765625 C 7.191406 -1.835938 7.8125 -2.054688 8.34375 -2.421875 C 8.882812 -2.785156 9.328125 -3.238281 9.671875 -3.78125 C 10.023438 -4.320312 10.273438 -4.910156 10.421875 -5.546875 C 10.578125 -6.191406 10.617188 -6.835938 10.546875 -7.484375 C 10.472656 -8.160156 10.285156 -8.796875 9.984375 -9.390625 C 9.679688 -9.992188 9.296875 -10.515625 8.828125 -10.953125 C 8.359375 -11.398438 7.828125 -11.738281 7.234375 -11.96875 C 6.648438 -12.195312 6.015625 -12.273438 5.328125 -12.203125 C 4.628906 -12.117188 4.007812 -11.894531 3.46875 -11.53125 C 2.925781 -11.164062 2.484375 -10.710938 2.140625 -10.171875 C 1.796875 -9.640625 1.546875 -9.050781 1.390625 -8.40625 C 1.242188 -7.757812 1.207031 -7.113281 1.28125 -6.46875 Z M 1.28125 -6.46875 "/></g></g></g><g fill="#ffffff" fill-opacity="1"><g transform="translate(223.909445, 315.719251)"><g><path d="M 0.15625 -1.6875 C 0.445312 -1.582031 0.804688 -1.523438 1.234375 -1.515625 C 1.671875 -1.503906 2.128906 -1.566406 2.609375 -1.703125 C 3.222656 -1.878906 3.679688 -2.128906 3.984375 -2.453125 C 4.296875 -2.773438 4.484375 -3.179688 4.546875 -3.671875 C 4.617188 -4.160156 4.59375 -4.726562 4.46875 -5.375 C 4.351562 -6.019531 4.179688 -6.742188 3.953125 -7.546875 L 2.203125 -13.6875 L 3.390625 -14.015625 L 5.140625 -7.875 C 5.398438 -6.957031 5.59375 -6.109375 5.71875 -5.328125 C 5.84375 -4.546875 5.84375 -3.847656 5.71875 -3.234375 C 5.601562 -2.628906 5.328125 -2.101562 4.890625 -1.65625 C 4.453125 -1.21875 3.789062 -0.875 2.90625 -0.625 C 1.882812 -0.332031 0.941406 -0.332031 0.078125 -0.625 Z M 0.15625 -1.6875 "/></g></g></g><g fill="#ffffff" fill-opacity="1"><g transform="translate(239.637521, 310.695394)"><g><path d="M 8.640625 -5.203125 L 9.09375 -4.203125 L 1.4375 -0.65625 L -3.828125 -12.0625 L 3.6875 -15.53125 L 4.15625 -14.53125 L -2.25 -11.578125 L -0.359375 -7.46875 L 5.21875 -10.046875 L 5.65625 -9.09375 L 0.078125 -6.515625 L 2.09375 -2.171875 Z M 8.640625 -5.203125 "/></g></g></g><g fill="#ffffff" fill-opacity="1"><g transform="translate(256.500213, 302.211948)"><g><path d="M -3.015625 -5.671875 C -3.441406 -6.285156 -3.757812 -6.972656 -3.96875 -7.734375 C -4.175781 -8.503906 -4.238281 -9.273438 -4.15625 -10.046875 C -4.070312 -10.828125 -3.828125 -11.582031 -3.421875 -12.3125 C -3.023438 -13.050781 -2.441406 -13.6875 -1.671875 -14.21875 C -0.742188 -14.851562 0.1875 -15.1875 1.125 -15.21875 C 2.070312 -15.257812 2.929688 -15.050781 3.703125 -14.59375 L 3.25 -13.546875 C 2.863281 -13.773438 2.46875 -13.921875 2.0625 -13.984375 C 1.65625 -14.054688 1.265625 -14.070312 0.890625 -14.03125 C 0.523438 -13.988281 0.175781 -13.894531 -0.15625 -13.75 C -0.488281 -13.613281 -0.796875 -13.453125 -1.078125 -13.265625 C -1.703125 -12.828125 -2.164062 -12.316406 -2.46875 -11.734375 C -2.78125 -11.160156 -2.953125 -10.554688 -2.984375 -9.921875 C -3.023438 -9.285156 -2.953125 -8.65625 -2.765625 -8.03125 C -2.585938 -7.414062 -2.316406 -6.84375 -1.953125 -6.3125 C -1.554688 -5.726562 -1.078125 -5.242188 -0.515625 -4.859375 C 0.0351562 -4.472656 0.625 -4.195312 1.25 -4.03125 C 1.882812 -3.875 2.515625 -3.835938 3.140625 -3.921875 C 3.773438 -4.015625 4.367188 -4.25 4.921875 -4.625 C 5.210938 -4.832031 5.484375 -5.078125 5.734375 -5.359375 C 5.992188 -5.640625 6.210938 -5.957031 6.390625 -6.3125 C 6.566406 -6.675781 6.695312 -7.054688 6.78125 -7.453125 C 6.863281 -7.859375 6.863281 -8.289062 6.78125 -8.75 L 7.953125 -8.90625 C 8.046875 -8.40625 8.039062 -7.898438 7.9375 -7.390625 C 7.84375 -6.890625 7.679688 -6.410156 7.453125 -5.953125 C 7.234375 -5.492188 6.953125 -5.066406 6.609375 -4.671875 C 6.273438 -4.273438 5.910156 -3.941406 5.515625 -3.671875 C 4.804688 -3.179688 4.046875 -2.882812 3.234375 -2.78125 C 2.421875 -2.6875 1.628906 -2.742188 0.859375 -2.953125 C 0.0976562 -3.160156 -0.617188 -3.5 -1.296875 -3.96875 C -1.984375 -4.4375 -2.554688 -5.003906 -3.015625 -5.671875 Z M -3.015625 -5.671875 "/></g></g></g><g fill="#ffffff" fill-opacity="1"><g transform="translate(272.706578, 290.099349)"><g><path d="M -0.5625 -15.53125 L -3.75 -12.390625 L 4.296875 -4.21875 L 3.40625 -3.34375 L -4.640625 -11.515625 L -7.828125 -8.375 L -8.59375 -9.15625 L -1.328125 -16.3125 Z M -0.5625 -15.53125 "/></g></g></g><g fill="#ffffff" fill-opacity="1"><g transform="translate(285.482732, 276.485504)"><g/></g></g><g fill="#ffffff" fill-opacity="1"><g transform="translate(292.843383, 266.454615)"><g><path d="M -8.25 -10.953125 L -7.734375 -11.859375 L 5.78125 -10.21875 L 5.125 -9.078125 L 0.90625 -9.59375 L -1.875 -4.6875 L 0.765625 -1.34375 L 0.109375 -0.1875 Z M -0.078125 -9.828125 L -6.734375 -10.6875 L -2.578125 -5.40625 Z M -0.078125 -9.828125 "/></g></g></g><g fill="#ffffff" fill-opacity="1"><g transform="translate(302.048012, 248.657443)"><g><path d="M 0.53125 -1.484375 L -11.28125 -5.734375 L -10.859375 -6.890625 L -0.078125 -3.015625 L 2.390625 -9.859375 L 3.421875 -9.484375 Z M 0.53125 -1.484375 "/></g></g></g><g fill="#ffffff" fill-opacity="1"><g transform="translate(307.670158, 231.169342)"><g><path d="M 0.28125 -1.546875 L -12.078125 -3.8125 L -11.140625 -8.9375 C -11.046875 -9.46875 -10.84375 -9.9375 -10.53125 -10.34375 C -10.226562 -10.75 -9.863281 -11.082031 -9.4375 -11.34375 C -9.007812 -11.601562 -8.546875 -11.78125 -8.046875 -11.875 C -7.546875 -11.976562 -7.0625 -11.984375 -6.59375 -11.890625 C -6.082031 -11.796875 -5.601562 -11.617188 -5.15625 -11.359375 C -4.71875 -11.109375 -4.347656 -10.789062 -4.046875 -10.40625 C -3.742188 -10.03125 -3.519531 -9.601562 -3.375 -9.125 C -3.238281 -8.644531 -3.222656 -8.140625 -3.328125 -7.609375 L -4.0625 -3.59375 L 0.5 -2.765625 Z M -5.140625 -3.796875 L -4.40625 -7.75 C -4.34375 -8.101562 -4.363281 -8.441406 -4.46875 -8.765625 C -4.582031 -9.097656 -4.75 -9.394531 -4.96875 -9.65625 C -5.1875 -9.914062 -5.457031 -10.132812 -5.78125 -10.3125 C -6.101562 -10.488281 -6.445312 -10.609375 -6.8125 -10.671875 C -7.1875 -10.742188 -7.554688 -10.742188 -7.921875 -10.671875 C -8.296875 -10.609375 -8.628906 -10.484375 -8.921875 -10.296875 C -9.222656 -10.109375 -9.472656 -9.875 -9.671875 -9.59375 C -9.878906 -9.3125 -10.015625 -9.007812 -10.078125 -8.6875 L -10.78125 -4.828125 Z M -5.140625 -3.796875 "/></g></g></g><g fill="#ffffff" fill-opacity="1"><g transform="translate(310.488677, 212.236754)"><g><path d="M -12.53125 -11.53125 L 0.03125 -11.484375 L 0.03125 -10.265625 L -5.84375 -10.28125 L -5.859375 -2.828125 L 0.015625 -2.8125 L 0 -1.578125 L -12.5625 -1.625 L -12.546875 -2.859375 L -6.953125 -2.828125 L -6.9375 -10.28125 L -12.53125 -10.3125 Z M -12.53125 -11.53125 "/></g></g></g><g fill="#ffffff" fill-opacity="1"><g transform="translate(309.763427, 191.036212)"><g><path d="M -13.328125 -3.140625 L -13.515625 -4.171875 L -2.09375 -11.546875 L -1.859375 -10.25 L -5.4375 -7.953125 L -4.4375 -2.40625 L -0.28125 -1.515625 L -0.03125 -0.21875 Z M -6.34375 -7.5 L -12.015625 -3.90625 L -5.4375 -2.5 Z M -6.34375 -7.5 "/></g></g></g><g fill="#ffffff" fill-opacity="1"><g transform="translate(40.869221, 223.082618)"><g><path d="M 68.078125 -92.023438 C 61.492188 -92.964844 54.820312 -93.222656 48.066406 -93.222656 C 34.894531 -93.222656 21.808594 -92.539062 8.722656 -90.570312 C 7.183594 -90.398438 5.300781 -88.605469 5.730469 -86.894531 C 6.074219 -85.523438 7.441406 -85.183594 8.808594 -85.183594 C 9.320312 -85.183594 9.75 -85.183594 10.175781 -85.269531 C 18.386719 -86.722656 26.597656 -87.0625 34.636719 -87.320312 C 36.007812 -64.570312 35.578125 -41.566406 34.636719 -18.816406 C 34.382812 -12.65625 33.953125 -6.585938 33.527344 -0.425781 C 33.441406 0.425781 34.382812 0.855469 35.664062 0.855469 C 37.800781 0.855469 40.710938 -0.257812 40.796875 -1.625 C 42.933594 -25.488281 43.105469 -49.605469 42.589844 -73.550781 C 42.507812 -78.167969 42.421875 -82.875 42.164062 -87.492188 C 43.875 -87.492188 45.585938 -87.492188 47.296875 -87.492188 C 53.453125 -87.492188 59.695312 -87.320312 65.683594 -86.464844 C 67.566406 -86.464844 69.53125 -86.722656 70.472656 -88.6875 C 71.242188 -90.484375 69.789062 -91.855469 68.078125 -92.023438 Z M 68.078125 -92.023438 "/></g></g></g><g fill="#ffffff" fill-opacity="1"><g transform="translate(106.905592, 223.082618)"><g><path d="M 62.003906 -18.046875 C 59.097656 -7.355469 47.378906 -3.847656 37.800781 -3.847656 C 23.945312 -4.277344 18.21875 -17.617188 17.191406 -28.992188 C 16.761719 -34.636719 16.761719 -40.453125 17.019531 -46.269531 C 22.066406 -45.15625 27.28125 -44.558594 32.585938 -44.558594 C 40.964844 -44.558594 49.347656 -45.925781 57.046875 -48.152344 C 58.242188 -48.40625 60.550781 -49.605469 60.210938 -51.144531 C 59.953125 -52.253906 58.753906 -52.511719 57.558594 -52.511719 C 56.960938 -52.511719 56.273438 -52.425781 55.847656 -52.339844 C 49.089844 -50.289062 41.820312 -49.175781 34.722656 -49.175781 C 28.566406 -49.175781 22.578125 -50.03125 17.191406 -51.914062 C 18.046875 -64.058594 18.558594 -75.519531 20.097656 -86.894531 C 26.597656 -87.835938 33.355469 -88.261719 40.027344 -88.261719 C 47.808594 -88.261719 55.589844 -87.664062 63.117188 -86.550781 C 65 -86.550781 66.964844 -86.808594 67.90625 -88.773438 C 68.675781 -90.484375 67.308594 -91.683594 65.683594 -91.9375 C 57.214844 -93.308594 48.664062 -93.480469 40.109375 -93.480469 C 32.328125 -93.480469 24.714844 -93.050781 17.105469 -91.855469 C 15.394531 -91.511719 13.257812 -90.742188 13 -88.773438 C 11.203125 -76.289062 8.550781 -39.597656 9.75 -26.941406 C 11.203125 -10.433594 20.269531 1.710938 37.375 1.710938 C 50.714844 1.710938 65.769531 -4.703125 69.53125 -18.644531 C 69.960938 -20.355469 67.90625 -21.039062 66.453125 -21.039062 C 64.484375 -21.039062 62.519531 -20.097656 62.003906 -18.046875 Z M 62.003906 -18.046875 "/></g></g></g><g fill="#ffffff" fill-opacity="1"><g transform="translate(171.744659, 223.082618)"><g><path d="M 63.628906 -65.769531 C 65.425781 -82.875 54.734375 -92.878906 39.683594 -92.878906 C 30.875 -92.878906 20.441406 -89.542969 14.882812 -82.445312 C 10.175781 -76.542969 9.152344 -66.964844 13.257812 -60.722656 C 16.933594 -54.90625 23.777344 -51.828125 29.847656 -48.921875 C 36.859375 -45.585938 44.128906 -42.421875 49.859375 -37.03125 C 56.359375 -30.875 60.464844 -21.382812 56.359375 -12.828125 C 52.855469 -5.644531 45.585938 -2.652344 38.402344 -2.652344 C 36.433594 -2.652344 34.550781 -2.824219 32.671875 -3.25 C 22.40625 -5.386719 15.394531 -12.828125 15.90625 -23.175781 C 15.992188 -25.488281 16.335938 -27.882812 16.933594 -30.191406 C 17.191406 -31.132812 16.164062 -31.472656 14.882812 -31.472656 C 12.828125 -31.472656 9.835938 -30.53125 9.492188 -29.078125 C 5.472656 -12.058594 13.941406 -1.539062 30.105469 0.769531 C 32.242188 1.027344 34.464844 1.199219 36.605469 1.199219 C 40.195312 1.199219 43.789062 0.769531 47.125 -0.34375 C 57.300781 -3.675781 66.539062 -12.144531 65.511719 -23.605469 C 64.742188 -32.070312 58.585938 -39.257812 51.828125 -43.789062 C 45.328125 -48.152344 37.972656 -51.058594 31.046875 -54.652344 C 25.570312 -57.558594 19.757812 -61.40625 18.472656 -67.90625 C 16.078125 -80.308594 25.316406 -89.03125 37.03125 -89.03125 C 47.039062 -89.03125 54.90625 -81.503906 56.191406 -72.183594 C 56.445312 -69.617188 56.445312 -67.136719 56.191406 -64.742188 C 56.019531 -63.714844 57.046875 -63.289062 58.414062 -63.289062 C 60.550781 -63.289062 63.460938 -64.398438 63.628906 -65.769531 Z M 63.628906 -65.769531 "/></g></g></g><g fill="#ffffff" fill-opacity="1"><g transform="translate(234.189125, 223.082618)"><g><path d="M 68.078125 -92.023438 C 61.492188 -92.964844 54.820312 -93.222656 48.066406 -93.222656 C 34.894531 -93.222656 21.808594 -92.539062 8.722656 -90.570312 C 7.183594 -90.398438 5.300781 -88.605469 5.730469 -86.894531 C 6.074219 -85.523438 7.441406 -85.183594 8.808594 -85.183594 C 9.320312 -85.183594 9.75 -85.183594 10.175781 -85.269531 C 18.386719 -86.722656 26.597656 -87.0625 34.636719 -87.320312 C 36.007812 -64.570312 35.578125 -41.566406 34.636719 -18.816406 C 34.382812 -12.65625 33.953125 -6.585938 33.527344 -0.425781 C 33.441406 0.425781 34.382812 0.855469 35.664062 0.855469 C 37.800781 0.855469 40.710938 -0.257812 40.796875 -1.625 C 42.933594 -25.488281 43.105469 -49.605469 42.589844 -73.550781 C 42.507812 -78.167969 42.421875 -82.875 42.164062 -87.492188 C 43.875 -87.492188 45.585938 -87.492188 47.296875 -87.492188 C 53.453125 -87.492188 59.695312 -87.320312 65.683594 -86.464844 C 67.566406 -86.464844 69.53125 -86.722656 70.472656 -88.6875 C 71.242188 -90.484375 69.789062 -91.855469 68.078125 -92.023438 Z M 68.078125 -92.023438 "/></g></g></g><g clip-path="url(#1d71b3c1d2)"><g clip-path="url(#ea37541228)"><path fill="#ffffff" d="M 243.648438 211.566406 L 256.839844 211.566406 L 256.839844 224.757812 L 243.648438 224.757812 Z M 243.648438 211.566406 " fill-opacity="1" fill-rule="nonzero"/></g></g></svg>