<svg xmlns="http://www.w3.org/2000/svg" version="1.1" xmlns:xlink="http://www.w3.org/1999/xlink" xmlns:svgjs="http://svgjs.com/svgjs" width="150" height="18.4" preserveAspectRatio="none" viewBox="0 0 150 18.4"><g mask="url(&quot;#SvgjsMask1112&quot;)" fill="none"><path d="M-10.72 27.4L-10.72 27.4" stroke="rgba(255, 0, 0, 0.1)" stroke-width="1.5"></path><path d="M-10.72 27.4L7.64 24.62" stroke="rgba(255, 0, 0, 0.1)" stroke-width="1.5"></path><path d="M-10.72 27.4L23.64 25.85" stroke="rgba(255, 0, 0, 0.1)" stroke-width="1.5"></path><path d="M-10.72 27.4L25.67 12.16" stroke="rgba(255, 0, 0, 0.1)" stroke-width="1.5"></path><path d="M7.64 24.62L7.64 24.62" stroke="rgba(255, 0, 0, 0.1)" stroke-width="1.5"></path><path d="M7.64 24.62L23.64 25.85" stroke="rgba(255, 0, 0, 0.1)" stroke-width="1.5"></path><path d="M7.64 24.62L25.67 12.16" stroke="rgba(255, 0, 0, 0.1)" stroke-width="1.5"></path><path d="M7.64 24.62L44.85 9.63" stroke="rgba(255, 0, 0, 0.1)" stroke-width="1.5"></path><path d="M7.64 24.62L49 26.42" stroke="rgba(255, 0, 0, 0.1)" stroke-width="1.5"></path><path d="M25.67 12.16L25.67 12.16" stroke="rgba(255, 0, 0, 0.1)" stroke-width="1.5"></path><path d="M25.67 12.16L23.64 25.85" stroke="rgba(255, 0, 0, 0.1)" stroke-width="1.5"></path><path d="M25.67 12.16L44.85 9.63" stroke="rgba(255, 0, 0, 0.1)" stroke-width="1.5"></path><path d="M23.64 25.85L23.64 25.85" stroke="rgba(255, 0, 0, 0.1)" stroke-width="1.5"></path><path d="M23.64 25.85L49 26.42" stroke="rgba(255, 0, 0, 0.1)" stroke-width="1.5"></path><path d="M44.85 9.63L44.85 9.63" stroke="rgba(255, 0, 0, 0.1)" stroke-width="1.5"></path><path d="M44.85 9.63L49 26.42" stroke="rgba(255, 0, 0, 0.1)" stroke-width="1.5"></path><path d="M44.85 9.63L66.15 13.28" stroke="rgba(255, 0, 0, 0.1)" stroke-width="1.5"></path><path d="M44.85 9.63L23.64 25.85" stroke="rgba(255, 0, 0, 0.1)" stroke-width="1.5"></path><path d="M49 26.42L49 26.42" stroke="rgba(255, 0, 0, 0.1)" stroke-width="1.5"></path><path d="M49 26.42L67.54 29.51" stroke="rgba(255, 0, 0, 0.1)" stroke-width="1.5"></path><path d="M49 26.42L66.15 13.28" stroke="rgba(255, 0, 0, 0.1)" stroke-width="1.5"></path><path d="M66.15 13.28L66.15 13.28" stroke="rgba(255, 0, 0, 0.1)" stroke-width="1.5"></path><path d="M66.15 13.28L67.54 29.51" stroke="rgba(255, 0, 0, 0.1)" stroke-width="1.5"></path><path d="M66.15 13.28L84.78 10.66" stroke="rgba(255, 0, 0, 0.1)" stroke-width="1.5"></path><path d="M66.15 13.28L82.22 28.92" stroke="rgba(255, 0, 0, 0.1)" stroke-width="1.5"></path><path d="M66.15 13.28L104.09 8.13" stroke="rgba(255, 0, 0, 0.1)" stroke-width="1.5"></path><path d="M67.54 29.51L67.54 29.51" stroke="rgba(255, 0, 0, 0.1)" stroke-width="1.5"></path><path d="M67.54 29.51L82.22 28.92" stroke="rgba(255, 0, 0, 0.1)" stroke-width="1.5"></path><path d="M84.78 10.66L84.78 10.66" stroke="rgba(255, 0, 0, 0.1)" stroke-width="1.5"></path><path d="M84.78 10.66L82.22 28.92" stroke="rgba(255, 0, 0, 0.1)" stroke-width="1.5"></path><path d="M84.78 10.66L104.09 8.13" stroke="rgba(255, 0, 0, 0.1)" stroke-width="1.5"></path><path d="M84.78 10.66L67.54 29.51" stroke="rgba(255, 0, 0, 0.1)" stroke-width="1.5"></path><path d="M82.22 28.92L82.22 28.92" stroke="rgba(255, 0, 0, 0.1)" stroke-width="1.5"></path><path d="M82.22 28.92L107.07 31.28" stroke="rgba(255, 0, 0, 0.1)" stroke-width="1.5"></path><path d="M104.09 8.13L104.09 8.13" stroke="rgba(255, 0, 0, 0.1)" stroke-width="1.5"></path><path d="M104.09 8.13L122.44 7.05" stroke="rgba(255, 0, 0, 0.1)" stroke-width="1.5"></path><path d="M107.07 31.28L107.07 31.28" stroke="rgba(255, 0, 0, 0.1)" stroke-width="1.5"></path><path d="M107.07 31.28L121.84 27.91" stroke="rgba(255, 0, 0, 0.1)" stroke-width="1.5"></path><path d="M107.07 31.28L104.09 8.13" stroke="rgba(255, 0, 0, 0.1)" stroke-width="1.5"></path><path d="M124.97 -12.95L124.97 -12.95" stroke="rgba(255, 0, 0, 0.1)" stroke-width="1.5"></path><path d="M124.97 -12.95L139.86 -11.68" stroke="rgba(255, 0, 0, 0.1)" stroke-width="1.5"></path><path d="M124.97 -12.95L122.44 7.05" stroke="rgba(255, 0, 0, 0.1)" stroke-width="1.5"></path><path d="M122.44 7.05L122.44 7.05" stroke="rgba(255, 0, 0, 0.1)" stroke-width="1.5"></path><path d="M121.84 27.91L121.84 27.91" stroke="rgba(255, 0, 0, 0.1)" stroke-width="1.5"></path><path d="M121.84 27.91L137.95 30.28" stroke="rgba(255, 0, 0, 0.1)" stroke-width="1.5"></path><path d="M121.84 27.91L122.44 7.05" stroke="rgba(255, 0, 0, 0.1)" stroke-width="1.5"></path><path d="M121.84 27.91L104.09 8.13" stroke="rgba(255, 0, 0, 0.1)" stroke-width="1.5"></path><path d="M121.84 27.91L143.91 9.25" stroke="rgba(255, 0, 0, 0.1)" stroke-width="1.5"></path><path d="M139.86 -11.68L139.86 -11.68" stroke="rgba(255, 0, 0, 0.1)" stroke-width="1.5"></path><path d="M139.86 -11.68L143.91 9.25" stroke="rgba(255, 0, 0, 0.1)" stroke-width="1.5"></path><path d="M139.86 -11.68L157.36 5.78" stroke="rgba(255, 0, 0, 0.1)" stroke-width="1.5"></path><path d="M139.86 -11.68L122.44 7.05" stroke="rgba(255, 0, 0, 0.1)" stroke-width="1.5"></path><path d="M139.86 -11.68L104.09 8.13" stroke="rgba(255, 0, 0, 0.1)" stroke-width="1.5"></path><path d="M143.91 9.25L143.91 9.25" stroke="rgba(255, 0, 0, 0.1)" stroke-width="1.5"></path><path d="M143.91 9.25L157.36 5.78" stroke="rgba(255, 0, 0, 0.1)" stroke-width="1.5"></path><path d="M143.91 9.25L122.44 7.05" stroke="rgba(255, 0, 0, 0.1)" stroke-width="1.5"></path><path d="M143.91 9.25L137.95 30.28" stroke="rgba(255, 0, 0, 0.1)" stroke-width="1.5"></path><path d="M143.91 9.25L161.06 26.7" stroke="rgba(255, 0, 0, 0.1)" stroke-width="1.5"></path><path d="M137.95 30.28L137.95 30.28" stroke="rgba(255, 0, 0, 0.1)" stroke-width="1.5"></path><path d="M157.36 5.78L157.36 5.78" stroke="rgba(255, 0, 0, 0.1)" stroke-width="1.5"></path><path d="M157.36 5.78L161.06 26.7" stroke="rgba(255, 0, 0, 0.1)" stroke-width="1.5"></path><path d="M161.06 26.7L161.06 26.7" stroke="rgba(255, 0, 0, 0.1)" stroke-width="1.5"></path><path d="M161.06 26.7L137.95 30.28" stroke="rgba(255, 0, 0, 0.1)" stroke-width="1.5"></path><circle r="5" cx="-10.72" cy="27.4" fill="rgba(255, 0, 0, 0.1)"></circle><circle r="5" cx="7.64" cy="24.62" fill="rgba(255, 0, 0, 0.1)"></circle><circle r="5" cx="25.67" cy="12.16" fill="rgba(255, 0, 0, 0.1)"></circle><circle r="5" cx="23.64" cy="25.85" fill="rgba(255, 0, 0, 0.1)"></circle><circle r="5" cx="44.85" cy="9.63" fill="rgba(255, 0, 0, 0.1)"></circle><circle r="5" cx="49" cy="26.42" fill="rgba(255, 0, 0, 0.1)"></circle><circle r="5" cx="66.15" cy="13.28" fill="rgba(255, 0, 0, 0.1)"></circle><circle r="5" cx="67.54" cy="29.51" fill="rgba(255, 0, 0, 0.1)"></circle><circle r="5" cx="84.78" cy="10.66" fill="rgba(255, 0, 0, 0.1)"></circle><circle r="5" cx="82.22" cy="28.92" fill="rgba(255, 0, 0, 0.1)"></circle><circle r="5" cx="104.09" cy="8.13" fill="rgba(255, 0, 0, 0.1)"></circle><circle r="5" cx="107.07" cy="31.28" fill="rgba(255, 0, 0, 0.1)"></circle><circle r="5" cx="124.97" cy="-12.95" fill="rgba(255, 0, 0, 0.1)"></circle><circle r="5" cx="122.44" cy="7.05" fill="rgba(255, 0, 0, 0.1)"></circle><circle r="5" cx="121.84" cy="27.91" fill="rgba(255, 0, 0, 0.1)"></circle><circle r="5" cx="139.86" cy="-11.68" fill="rgba(255, 0, 0, 0.1)"></circle><circle r="5" cx="143.91" cy="9.25" fill="rgba(255, 0, 0, 0.1)"></circle><circle r="5" cx="137.95" cy="30.28" fill="rgba(255, 0, 0, 0.1)"></circle><circle r="5" cx="157.36" cy="5.78" fill="rgba(255, 0, 0, 0.1)"></circle><circle r="5" cx="161.06" cy="26.7" fill="rgba(255, 0, 0, 0.1)"></circle><path d="M-11.26 32.55L-11.26 32.55" stroke="hsla(54.10000000000002, 100%, 65%, 0.1)" stroke-width="1.5"></path><path d="M-11.26 32.55L8.4 25.52" stroke="hsla(54.10000000000002, 100%, 65%, 0.1)" stroke-width="1.5"></path><path d="M-11.26 32.55L45.73 29.26" stroke="hsla(54.10000000000002, 100%, 65%, 0.1)" stroke-width="1.5"></path><path d="M8.4 25.52L8.4 25.52" stroke="hsla(54.10000000000002, 100%, 65%, 0.1)" stroke-width="1.5"></path><path d="M8.4 25.52L45.73 29.26" stroke="hsla(54.10000000000002, 100%, 65%, 0.1)" stroke-width="1.5"></path><path d="M45.73 29.26L45.73 29.26" stroke="hsla(54.10000000000002, 100%, 65%, 0.1)" stroke-width="1.5"></path><path d="M45.73 29.26L69.68 27.04" stroke="hsla(54.10000000000002, 100%, 65%, 0.1)" stroke-width="1.5"></path><path d="M69.68 27.04L69.68 27.04" stroke="hsla(54.10000000000002, 100%, 65%, 0.1)" stroke-width="1.5"></path><path d="M69.68 27.04L85.61 24.32" stroke="hsla(54.10000000000002, 100%, 65%, 0.1)" stroke-width="1.5"></path><path d="M69.68 27.04L101.55 29.12" stroke="hsla(54.10000000000002, 100%, 65%, 0.1)" stroke-width="1.5"></path><path d="M85.61 24.32L85.61 24.32" stroke="hsla(54.10000000000002, 100%, 65%, 0.1)" stroke-width="1.5"></path><path d="M85.61 24.32L101.55 29.12" stroke="hsla(54.10000000000002, 100%, 65%, 0.1)" stroke-width="1.5"></path><path d="M85.61 24.32L119.49 31.16" stroke="hsla(54.10000000000002, 100%, 65%, 0.1)" stroke-width="1.5"></path><path d="M85.61 24.32L45.73 29.26" stroke="hsla(54.10000000000002, 100%, 65%, 0.1)" stroke-width="1.5"></path><path d="M101.55 29.12L101.55 29.12" stroke="hsla(54.10000000000002, 100%, 65%, 0.1)" stroke-width="1.5"></path><path d="M101.55 29.12L119.49 31.16" stroke="hsla(54.10000000000002, 100%, 65%, 0.1)" stroke-width="1.5"></path><path d="M121.11 -13.7L121.11 -13.7" stroke="hsla(54.10000000000002, 100%, 65%, 0.1)" stroke-width="1.5"></path><path d="M121.11 -13.7L138.55 -9.19" stroke="hsla(54.10000000000002, 100%, 65%, 0.1)" stroke-width="1.5"></path><path d="M121.11 -13.7L158.34 -9.6" stroke="hsla(54.10000000000002, 100%, 65%, 0.1)" stroke-width="1.5"></path><path d="M121.11 -13.7L139 26.4" stroke="hsla(54.10000000000002, 100%, 65%, 0.1)" stroke-width="1.5"></path><path d="M121.11 -13.7L158.39 10.73" stroke="hsla(54.10000000000002, 100%, 65%, 0.1)" stroke-width="1.5"></path><path d="M121.11 -13.7L119.49 31.16" stroke="hsla(54.10000000000002, 100%, 65%, 0.1)" stroke-width="1.5"></path><path d="M119.49 31.16L119.49 31.16" stroke="hsla(54.10000000000002, 100%, 65%, 0.1)" stroke-width="1.5"></path><path d="M119.49 31.16L139 26.4" stroke="hsla(54.10000000000002, 100%, 65%, 0.1)" stroke-width="1.5"></path><path d="M119.49 31.16L158.39 10.73" stroke="hsla(54.10000000000002, 100%, 65%, 0.1)" stroke-width="1.5"></path><path d="M138.55 -9.19L138.55 -9.19" stroke="hsla(54.10000000000002, 100%, 65%, 0.1)" stroke-width="1.5"></path><path d="M138.55 -9.19L158.34 -9.6" stroke="hsla(54.10000000000002, 100%, 65%, 0.1)" stroke-width="1.5"></path><path d="M138.55 -9.19L158.39 10.73" stroke="hsla(54.10000000000002, 100%, 65%, 0.1)" stroke-width="1.5"></path><path d="M138.55 -9.19L139 26.4" stroke="hsla(54.10000000000002, 100%, 65%, 0.1)" stroke-width="1.5"></path><path d="M139 26.4L139 26.4" stroke="hsla(54.10000000000002, 100%, 65%, 0.1)" stroke-width="1.5"></path><path d="M139 26.4L158.39 10.73" stroke="hsla(54.10000000000002, 100%, 65%, 0.1)" stroke-width="1.5"></path><path d="M139 26.4L163.92 30.18" stroke="hsla(54.10000000000002, 100%, 65%, 0.1)" stroke-width="1.5"></path><path d="M158.34 -9.6L158.34 -9.6" stroke="hsla(54.10000000000002, 100%, 65%, 0.1)" stroke-width="1.5"></path><path d="M158.34 -9.6L158.39 10.73" stroke="hsla(54.10000000000002, 100%, 65%, 0.1)" stroke-width="1.5"></path><path d="M158.34 -9.6L163.92 30.18" stroke="hsla(54.10000000000002, 100%, 65%, 0.1)" stroke-width="1.5"></path><path d="M158.34 -9.6L139 26.4" stroke="hsla(54.10000000000002, 100%, 65%, 0.1)" stroke-width="1.5"></path><path d="M158.34 -9.6L119.49 31.16" stroke="hsla(54.10000000000002, 100%, 65%, 0.1)" stroke-width="1.5"></path><path d="M158.39 10.73L158.39 10.73" stroke="hsla(54.10000000000002, 100%, 65%, 0.1)" stroke-width="1.5"></path><path d="M158.39 10.73L163.92 30.18" stroke="hsla(54.10000000000002, 100%, 65%, 0.1)" stroke-width="1.5"></path><path d="M163.92 30.18L163.92 30.18" stroke="hsla(54.10000000000002, 100%, 65%, 0.1)" stroke-width="1.5"></path><path d="M163.92 30.18L119.49 31.16" stroke="hsla(54.10000000000002, 100%, 65%, 0.1)" stroke-width="1.5"></path><circle r="5" cx="-11.26" cy="32.55" fill="rgba(255, 254, 242, 0.55)"></circle><circle r="5" cx="8.4" cy="25.52" fill="rgba(255, 254, 242, 0.55)"></circle><circle r="5" cx="45.73" cy="29.26" fill="rgba(255, 254, 242, 0.55)"></circle><circle r="5" cx="69.68" cy="27.04" fill="rgba(255, 254, 242, 0.55)"></circle><circle r="5" cx="85.61" cy="24.32" fill="rgba(255, 254, 242, 0.55)"></circle><circle r="5" cx="101.55" cy="29.12" fill="rgba(255, 254, 242, 0.55)"></circle><circle r="5" cx="121.11" cy="-13.7" fill="rgba(255, 254, 242, 0.55)"></circle><circle r="5" cx="119.49" cy="31.16" fill="rgba(255, 254, 242, 0.55)"></circle><circle r="5" cx="138.55" cy="-9.19" fill="rgba(255, 254, 242, 0.55)"></circle><circle r="5" cx="139" cy="26.4" fill="rgba(255, 254, 242, 0.55)"></circle><circle r="5" cx="158.34" cy="-9.6" fill="rgba(255, 254, 242, 0.55)"></circle><circle r="5" cx="158.39" cy="10.73" fill="rgba(255, 254, 242, 0.55)"></circle><circle r="5" cx="163.92" cy="30.18" fill="rgba(255, 254, 242, 0.55)"></circle></g><defs><mask id="SvgjsMask1112"><rect width="150" height="18.4" fill="#ffffff"></rect></mask><radialGradient><stop stop-color="#ffffff" offset="0.1"></stop><stop stop-color="rgba(255, 230, 0, 0.1)" offset="0.2"></stop><stop stop-color="rgba(255, 230, 0, 0)" offset="1"></stop></radialGradient></defs></svg>